<svg width="52" height="52" viewBox="0 0 52 52" fill="none" xmlns="http://www.w3.org/2000/svg">
<path d="M26 51C29.2837 51.0043 32.5358 50.3595 35.5695 49.1029C38.6032 47.8463 41.3586 46.0025 43.6775 43.6775C46.0024 41.3587 47.8462 38.6032 49.1029 35.5695C50.3595 32.5358 51.0042 29.2837 51 26C51.0042 22.7164 50.3594 19.4642 49.1028 16.4306C47.8461 13.3969 46.0024 10.6414 43.6775 8.32252C41.3586 5.99755 38.6032 4.15377 35.5695 2.89713C32.5358 1.64049 29.2837 0.995766 26 1.00002C22.7163 0.995835 19.4642 1.64059 16.4305 2.89722C13.3968 4.15386 10.6414 5.99761 8.32249 8.32252C5.99758 10.6414 4.15383 13.3969 2.89719 16.4306C1.64056 19.4642 0.995804 22.7164 0.99999 26C0.995736 29.2837 1.64046 32.5358 2.8971 35.5695C4.15374 38.6032 5.99752 41.3587 8.32249 43.6775C10.6414 46.0024 13.3968 47.8462 16.4305 49.1028C19.4642 50.3594 22.7163 51.0042 26 51V51Z" stroke="#D04C33" stroke-width="2" stroke-linejoin="round"/>
<path d="M25.9293 39.1291C25.9481 39.1103 25.9735 39.0998 26 39.0998C26.0265 39.0998 26.052 39.1103 26.0707 39.1291C26.0895 39.1478 26.1 39.1733 26.1 39.1998C26.1 39.2263 26.0895 39.2518 26.0707 39.2705C26.052 39.2893 26.0265 39.2998 26 39.2998C25.9735 39.2998 25.9481 39.2893 25.9293 39.2705C25.9105 39.2518 25.9 39.2263 25.9 39.1998C25.9 39.1733 25.9105 39.1478 25.9293 39.1291Z" fill="#D04C33" stroke="#D04C33" stroke-width="5"/>
<path d="M26 11V31" stroke="#D04C33" stroke-width="2" stroke-linejoin="round"/>
</svg>
